<svg xmlns="http://www.w3.org/2000/svg" xmlns:xlink="http://www.w3.org/1999/xlink" width="511" zoomAndPan="magnify" viewBox="0 0 383.25 383.249986" height="511" preserveAspectRatio="xMidYMid meet" version="1.0"><defs><clipPath id="7e2644f6e3"><path d="M 0 0 L 382.304688 0 L 382.304688 382.304688 L 0 382.304688 Z M 0 0 " clip-rule="nonzero"/></clipPath><clipPath id="62924f45c3"><path d="M 68.117188 0 L 314.1875 0 C 332.253906 0 349.578125 7.175781 362.351562 19.949219 C 375.128906 32.726562 382.304688 50.050781 382.304688 68.117188 L 382.304688 314.1875 C 382.304688 332.253906 375.128906 349.578125 362.351562 362.351562 C 349.578125 375.128906 332.253906 382.304688 314.1875 382.304688 L 68.117188 382.304688 C 50.050781 382.304688 32.726562 375.128906 19.949219 362.351562 C 7.175781 349.578125 0 332.253906 0 314.1875 L 0 68.117188 C 0 50.050781 7.175781 32.726562 19.949219 19.949219 C 32.726562 7.175781 50.050781 0 68.117188 0 Z M 68.117188 0 " clip-rule="nonzero"/></clipPath><clipPath id="86122a0f1a"><path d="M 80.734375 45.867188 L 294.8125 45.867188 L 294.8125 336.300781 L 80.734375 336.300781 Z M 80.734375 45.867188 " clip-rule="nonzero"/></clipPath></defs><g clip-path="url(#7e2644f6e3)"><g clip-path="url(#62924f45c3)"><path fill="#00545c" d="M 0 0 L 382.304688 0 L 382.304688 382.304688 L 0 382.304688 Z M 0 0 " fill-opacity="1" fill-rule="nonzero"/></g></g><g clip-path="url(#86122a0f1a)"><path fill="#ffffff" d="M 129.164062 98.777344 L 129.164062 151.980469 L 139.855469 145.753906 L 150.546875 139.53125 L 150.78125 92.554688 L 151.015625 45.574219 L 129.164062 45.574219 Z M 176.476562 84.699219 C 176.476562 106.21875 176.765625 123.824219 177.113281 123.824219 C 177.464844 123.824219 182.578125 121.058594 188.476562 117.683594 L 199.203125 111.539062 L 199.210938 78.558594 L 199.222656 45.574219 L 176.476562 45.574219 Z M 224.480469 84.351562 L 224.242188 123.125 L 190.578125 142.546875 C 172.0625 153.230469 153.433594 163.996094 149.179688 166.46875 C 141.066406 171.179688 109.851562 189.222656 91.632812 199.730469 L 80.941406 205.890625 L 80.941406 339.515625 L 103.230469 339.007812 L 103.464844 278.863281 L 103.699219 218.722656 L 164.882812 183.414062 C 198.53125 163.996094 230.875 145.289062 236.753906 141.84375 L 247.445312 135.582031 L 247.445312 45.574219 L 224.71875 45.574219 Z M 272.921875 250.292969 L 272.921875 336.730469 L 294.757812 336.730469 L 294.757812 175.835938 L 284.324219 169.847656 C 278.589844 166.554688 273.675781 163.855469 273.40625 163.855469 C 273.140625 163.855469 272.921875 202.753906 272.921875 250.292969 M 229.476562 171.386719 L 224.699219 174.304688 L 224.699219 336.730469 L 247.457031 336.730469 L 247.222656 255.582031 L 246.992188 174.433594 L 241.988281 171.425781 C 239.234375 169.769531 236.367188 168.425781 235.617188 168.441406 C 234.867188 168.457031 232.101562 169.78125 229.476562 171.386719 M 191.921875 193.234375 C 188.203125 195.363281 184.496094 197.515625 180.796875 199.6875 L 176.476562 202.246094 L 176.476562 336.730469 L 199.222656 336.730469 L 199.222656 263.03125 C 199.222656 222.5 199.109375 189.332031 198.972656 189.332031 C 198.835938 189.332031 195.664062 191.089844 191.921875 193.234375 M 140.082031 222.996094 L 129.617188 229.183594 L 129.148438 336.730469 L 151 336.730469 L 151 276.679688 C 151 243.652344 150.898438 216.667969 150.773438 216.71875 C 150.648438 216.769531 145.835938 219.59375 140.082031 222.996094 " fill-opacity="1" fill-rule="evenodd"/></g></svg>